<svg xmlns="http://www.w3.org/2000/svg" viewBox="0 0 130 130"><defs><style>.cls-1{fill:none;}.cls-2{fill:#19a9e2;}</style></defs><g id="Layer_2" data-name="Layer 2"><g id="Layer_1-2" data-name="Layer 1"><rect class="cls-1" width="130" height="130"/><path class="cls-2" d="M65,10a55,55,0,1,0,55,55A55,55,0,0,0,65,10Zm36.33,17.26a9.49,9.49,0,0,0-.56,3.34,21.24,21.24,0,0,1,0,2.39,16.65,16.65,0,0,1-.56,2.42,26.46,26.46,0,0,0-.53,5.76,9.09,9.09,0,0,1-2.26-2.71C95.88,35.53,96,32,96.24,28.68a10,10,0,0,1,.38-2.55,7.78,7.78,0,0,1,1.11-2Q99.61,25.59,101.33,27.26ZM62.05,87h0c-.31-.12-.56-.49-.41-.78a1.77,1.77,0,0,1,2.42-.11C64.71,87.13,62.62,87.2,62.05,87Zm2.17-7.47a1.82,1.82,0,0,0-.86.49,3.71,3.71,0,0,1-3.28,1,.72.72,0,0,1-.4-.26.65.65,0,0,1,.11-.74c.17-.2.4-.35.58-.54.64-.67.54-1.73.91-2.58s1.32-1.65,1.21-2.63c0-.28-.14-.55-.14-.84,0-.72.87-1.34.65-2a1.56,1.56,0,0,0-.38-.54L61.1,69.24a3.35,3.35,0,0,0-1-.83,6.12,6.12,0,0,0-1.36-.31,1.55,1.55,0,0,1-1.13-.73.48.48,0,0,1,0-.35.55.55,0,0,1,.34-.29c.42-.18.87-.27,1.27-.46a1.51,1.51,0,0,0,.88-1,.78.78,0,0,0-.71-.94c-.23,0-.53.13-.65-.06a.38.38,0,0,1,.05-.38,2.55,2.55,0,0,1,.75-.88A2.83,2.83,0,0,0,58,62.73c-.53,0-1.16-.36-1.14-.9,0-.38.37-.65.69-.86a20,20,0,0,0,2.78-1.84c1.12-1,1.94-1.85,3.37-.88a3.24,3.24,0,0,0,2.93.76c1.18-.41,1.5-1.5,2.18-2.4.38-.5,2.42-1.68,2.53-.3a1.38,1.38,0,0,1-.4.86A3.28,3.28,0,0,0,70.28,59a4,4,0,0,1-.07,1.38,2,2,0,0,1-.65.8,4.67,4.67,0,0,1-2.55,1,3.66,3.66,0,0,0-1.69.28,2.53,2.53,0,0,0-.81,1.11c-.22.46-.43.93-.63,1.4a1.57,1.57,0,0,0-.19.94c.14.67,1,.86,1.6,1.16a5.69,5.69,0,0,1,1.88,1.71A6.23,6.23,0,0,1,68.51,71c.12.43.16.87.29,1.29a16.22,16.22,0,0,0,.94,1.8,6.78,6.78,0,0,1,.08,4.78c-.29,1-.9,2.21-2,2.31S66,80.24,65,79.72A1.33,1.33,0,0,0,64.22,79.53Zm7.13-13.06A1.45,1.45,0,0,1,72.58,66c1.48.12.51,1.11-.47,1.2C71.45,67.29,70.66,67.25,71.35,66.47ZM71,70.17c-.26,0-.56,0-.3-.25a.57.57,0,0,1,.47-.15C71.77,69.81,71.4,70.14,71,70.17Zm-1.47.24c-.35,0-.77,0-.41-.4a.78.78,0,0,1,.66-.24C70.6,69.83,70.09,70.36,69.56,70.41Zm10.77-11.2a3.41,3.41,0,0,1,.46,3.52,5.23,5.23,0,0,1-2.6,2.58c-.74.36-3.61,1.55-2.79-.36.29-.66,1-1.07,1.54-1.58a10.28,10.28,0,0,0,1.6-2.15c.36-.66.66-1.36,1.07-2a.57.57,0,0,1,.27-.24A.49.49,0,0,1,80.33,59.21Zm-.1-1.59A9.59,9.59,0,0,0,81,56.06c.28-1,1.36-4.39,2.84-2.44a1.34,1.34,0,0,1-.19,1.9c-.56.57-.92,1.43-1.52,1.93h0a2.71,2.71,0,0,1-1.64.45c-.1,0-.22,0-.26-.09A.27.27,0,0,1,80.23,57.62ZM12.6,65a52.35,52.35,0,0,1,26-45.27c.2.28.4.57.58.87a7.64,7.64,0,0,0,1.09,1.69,4.85,4.85,0,0,0,3.2,1.15A6.2,6.2,0,0,0,46.68,23a13.83,13.83,0,0,0,2.13-1.63,12.23,12.23,0,0,1,9.48-2.16c1.53.24,3,.7,4.54.86a20,20,0,0,0,4.51-.14,67.52,67.52,0,0,0,13.62-3L83.53,16a52.51,52.51,0,0,1,11.79,6.29l-2,1.59A4.66,4.66,0,0,0,91.5,26a13.15,13.15,0,0,1-.36,1.91c-.4.92-1.46,1.29-2.28,1.86s-1.43,1.85-.67,2.51c-.15.35-.72.27-1,0a4.52,4.52,0,0,1-.4-1.08c-.61-1.51-2.81-1.4-4.29-.74a12.92,12.92,0,0,0-6.32,6.14c-.54,1.14-.88,2.62,0,3.59,1.31,1.52,4.14.3,5.63,1.65s.4,3.71-.72,5.33L76.38,54c-.49.72-1.25,1.52-2.07,1.24-.47-.16-.75-.64-1.09-1a3.84,3.84,0,0,0-4.46-.42,11.23,11.23,0,0,0-3.44,3.29c-.06-1.49-1.68-2.51-3.17-2.48A8.72,8.72,0,0,0,58,56.16c-2.49,1.49-5.14,3.16-6.22,5.85-.84,2.12-.56,4.5-1,6.73-.93,5.08-5.43,8.9-10.33,10.53a9.82,9.82,0,0,1-4.48.57c-1.8-.29-3.39-1.36-5.16-1.83s-4.06-.06-4.71,1.66a4.89,4.89,0,0,0,.46,3.45c.52,1.34,1.05,2.67,1.57,4,.33.83.54,2-.25,2.4-.56.3-1.23,0-1.75-.41C20.14,84.89,17.24,77.6,13,71.5A53.63,53.63,0,0,1,12.6,65Zm23,43.41c2.33-1.87,5-3.42,7.49-5.08a10.25,10.25,0,0,1,4.07-2,5.27,5.27,0,0,1,5.58,3.36c.17.49.31,1.06.76,1.31a1.77,1.77,0,0,0,.79.15l5.64.22c1,0,2.23.17,2.8,1-1.4,1.28-3.55,1.43-5,2.64a7.12,7.12,0,0,0-2.12,4.74c-.07.56-.11,1.13-.16,1.7A52.09,52.09,0,0,1,35.64,108.41Z"/></g></g></svg>