<svg xmlns="http://www.w3.org/2000/svg" viewBox="0 0 130 130"><defs><style>.cls-1{fill:none;}.cls-2{fill:#19a9e2;}</style></defs><g id="Layer_2" data-name="Layer 2"><g id="Layer_1-2" data-name="Layer 1"><rect class="cls-1" width="130" height="130"/><rect class="cls-2" x="13.75" y="87.68" width="18.47" height="32.32" rx="1.85"/><rect class="cls-2" x="42.37" y="78.44" width="18.47" height="41.56" rx="1.85"/><rect class="cls-2" x="70.08" y="64.59" width="18.47" height="55.41" rx="1.85"/><rect class="cls-2" x="97.78" y="50.74" width="18.47" height="69.26" rx="1.85"/><path class="cls-2" d="M17,61v1.67a1.85,1.85,0,0,0,2,1.84c10.15-.7,57-5.46,84.84-35l6.08,6.08A1.85,1.85,0,0,0,113,34.27V11.85A1.85,1.85,0,0,0,111.17,10H89.8a1.85,1.85,0,0,0-1.3,3.15l6.12,6.12s-26.28,33.51-76,39.87A1.85,1.85,0,0,0,17,61Z"/></g></g></svg>