<svg xmlns="http://www.w3.org/2000/svg" viewBox="0 0 130 130"><defs><style>.cls-1{fill:none;}.cls-2{fill:#19a9e2;}</style></defs><g id="Layer_2" data-name="Layer 2"><g id="Layer_1-2" data-name="Layer 1"><rect class="cls-1" width="130" height="130"/><path class="cls-2" d="M65,0a65,65,0,1,0,65,65A65,65,0,0,0,65,0Zm42.94,20.4a11.26,11.26,0,0,0-.67,3.94,24.48,24.48,0,0,1,.06,2.84,20.24,20.24,0,0,1-.65,2.85,30.41,30.41,0,0,0-.63,6.81,10.72,10.72,0,0,1-2.68-3.2c-1.88-3.47-1.69-7.64-1.45-11.57a11.79,11.79,0,0,1,.45-3,9.11,9.11,0,0,1,1.31-2.41Q105.9,18.44,107.94,20.4ZM61.51,91h0c-.36-.13-.66-.56-.48-.91A2.08,2.08,0,0,1,63.89,90C64.66,91.16,62.18,91.24,61.51,91Zm2.56-8.82a2.16,2.16,0,0,0-1,.58,4.38,4.38,0,0,1-3.87,1.17.84.84,0,0,1-.48-.31.75.75,0,0,1,.13-.87c.2-.24.48-.41.69-.64.75-.79.64-2,1.07-3s1.56-2,1.44-3.1a7.08,7.08,0,0,1-.17-1c0-.87,1-1.59.76-2.41a1.75,1.75,0,0,0-.44-.64L60.39,70a4.27,4.27,0,0,0-1.19-1,7.85,7.85,0,0,0-1.61-.37,1.82,1.82,0,0,1-1.34-.86.56.56,0,0,1,0-.42.64.64,0,0,1,.4-.33c.49-.21,1-.32,1.5-.55a1.75,1.75,0,0,0,1-1.15.92.92,0,0,0-.84-1.11c-.27,0-.62.16-.77-.07a.46.46,0,0,1,.06-.45,3,3,0,0,1,.89-1,3.25,3.25,0,0,0-1.82-.37c-.63-.06-1.37-.43-1.34-1.06,0-.45.43-.78.81-1a24.25,24.25,0,0,0,3.28-2.18c1.33-1.18,2.3-2.19,4-1,1,.71,2.19,1.35,3.47.9s1.77-1.78,2.57-2.83c.46-.6,2.86-2,3-.37a1.73,1.73,0,0,1-.48,1,3.88,3.88,0,0,0-.72,2.2,4.62,4.62,0,0,1-.08,1.62,2.37,2.37,0,0,1-.77,1,5.47,5.47,0,0,1-3,1.16,4.15,4.15,0,0,0-2,.33,3,3,0,0,0-1,1.31c-.26.55-.51,1.1-.74,1.66a1.82,1.82,0,0,0-.23,1.11c.17.79,1.16,1,1.9,1.36a6.93,6.93,0,0,1,2.22,2,7.63,7.63,0,0,1,1.58,2.59c.14.5.18,1,.34,1.52a18,18,0,0,0,1.12,2.13,8,8,0,0,1,.09,5.64c-.35,1.23-1.06,2.62-2.33,2.74S66.14,83,65,82.4A1.64,1.64,0,0,0,64.07,82.17Zm8.44-15.43A1.74,1.74,0,0,1,74,66.2c1.74.15.61,1.31-.55,1.43C72.62,67.7,71.69,67.66,72.51,66.74Zm-.39,4.37c-.3,0-.66,0-.34-.3a.7.7,0,0,1,.55-.18C73,70.68,72.57,71.07,72.12,71.11Zm-1.73.29c-.42,0-.92,0-.48-.48a.93.93,0,0,1,.77-.29C71.62,70.71,71,71.33,70.39,71.4ZM83.12,58.15a4,4,0,0,1,.54,4.17,6.16,6.16,0,0,1-3.07,3.05c-.88.42-4.27,1.83-3.3-.43.34-.78,1.24-1.26,1.82-1.86A12,12,0,0,0,81,60.54c.43-.79.78-1.62,1.27-2.37a.6.6,0,0,1,.31-.28A.59.59,0,0,1,83.12,58.15ZM83,56.28a11.11,11.11,0,0,0,.87-1.85c.33-1.19,1.61-5.19,3.36-2.88A1.58,1.58,0,0,1,87,53.8c-.66.67-1.08,1.68-1.8,2.28h0a3.27,3.27,0,0,1-1.93.53c-.11,0-.26,0-.3-.11A.29.29,0,0,1,83,56.28ZM3.07,65A61.88,61.88,0,0,1,33.83,11.5c.23.33.47.67.68,1a8.83,8.83,0,0,0,1.29,2,5.75,5.75,0,0,0,3.78,1.37,7.19,7.19,0,0,0,3.76-.59,15.54,15.54,0,0,0,2.52-1.92,14.5,14.5,0,0,1,11.22-2.55c1.79.28,3.55.82,5.36,1a23.78,23.78,0,0,0,5.33-.16A80.46,80.46,0,0,0,83.86,8.12c1-.34,2-.7,3-1a61.66,61.66,0,0,1,13.93,7.43l-2.37,1.88A5.55,5.55,0,0,0,96.32,19a17,17,0,0,1-.42,2.26c-.48,1.07-1.74,1.52-2.71,2.2s-1.68,2.18-.79,2.95c-.17.43-.85.32-1.12-.05A5,5,0,0,1,90.8,25c-.73-1.78-3.32-1.65-5.07-.87a15.26,15.26,0,0,0-7.47,7.25c-.64,1.35-1,3.1-.06,4.24,1.54,1.81,4.89.36,6.66,2s.47,4.39-.85,6.3l-5.56,8c-.58.85-1.48,1.8-2.45,1.47-.56-.19-.88-.76-1.29-1.19-1.3-1.37-3.58-1.36-5.26-.49a13.23,13.23,0,0,0-4.07,3.89c-.07-1.76-2-3-3.75-2.94a10.33,10.33,0,0,0-4.86,1.87c-3,1.76-6.08,3.74-7.36,6.92-1,2.5-.66,5.31-1.14,8-1.11,6-6.43,10.51-12.21,12.43a11.28,11.28,0,0,1-5.29.67c-2.14-.33-4-1.6-6.1-2.16s-4.81-.06-5.57,2c-.5,1.32,0,2.77.54,4.08l1.86,4.75c.38,1,.63,2.35-.29,2.83a2.13,2.13,0,0,1-2.08-.48C12,88.5,8.55,79.9,3.56,72.68A62.83,62.83,0,0,1,3.07,65ZM30.3,116.3c2.76-2.21,5.94-4,8.85-6A12.14,12.14,0,0,1,44,108a6.21,6.21,0,0,1,6.59,4c.2.57.37,1.25.9,1.54a2.09,2.09,0,0,0,.93.18l6.66.26c1.23,0,2.64.19,3.32,1.22-1.66,1.51-4.2,1.69-5.93,3.12s-2.25,3.52-2.5,5.6c-.08.66-.13,1.34-.19,2A61.6,61.6,0,0,1,30.3,116.3Z"/></g></g></svg>