<svg xmlns="http://www.w3.org/2000/svg" viewBox="0 0 130 130"><defs><style>.cls-1{fill:none;}.cls-2{fill:#19a9e2;}</style></defs><g id="Layer_2" data-name="Layer 2"><g id="Layer_1-2" data-name="Layer 1"><rect class="cls-1" width="130" height="130"/><path class="cls-2" d="M78.08,110.58H52.76a1.69,1.69,0,0,0-1.69,1.69V119a3.37,3.37,0,0,0,3.38,3.37h1.69v4.22A3.37,3.37,0,0,0,59.51,130H71.33a3.38,3.38,0,0,0,3.38-3.38V122.4H76.4A3.37,3.37,0,0,0,79.77,119v-6.76A1.69,1.69,0,0,0,78.08,110.58Z"/><rect class="cls-2" x="62.05" width="6.75" height="20.26" rx="3.38"/><rect class="cls-2" x="25.21" y="14.91" width="6.75" height="20.26" rx="3.38" transform="translate(-9.33 27.55) rotate(-45)"/><rect class="cls-2" x="9.71" y="51.49" width="6.75" height="20.26" rx="3.38" transform="translate(-48.54 74.71) rotate(-90)"/><rect class="cls-2" x="24.62" y="88.33" width="6.75" height="20.26" rx="3.38" transform="translate(-21.83 187.87) rotate(-135)"/><rect class="cls-2" x="98.03" y="88.92" width="6.75" height="20.26" rx="3.38" transform="translate(243.16 97.39) rotate(135)"/><rect class="cls-2" x="113.54" y="52.34" width="6.75" height="20.26" rx="3.38" transform="translate(179.38 -54.45) rotate(90)"/><rect class="cls-2" x="98.63" y="15.5" width="6.75" height="20.26" rx="3.38" transform="translate(48 -64.62) rotate(45)"/><path class="cls-2" d="M74.87,57.79A10.49,10.49,0,0,0,70.1,53a9.88,9.88,0,0,0-1.3-.54,10.45,10.45,0,0,0-6.75,0,9.88,9.88,0,0,0-1.3.54A10.56,10.56,0,0,0,56,57.79a11.46,11.46,0,0,0-.54,1.3,10.45,10.45,0,0,0,0,6.75,11.46,11.46,0,0,0,.54,1.3,10.63,10.63,0,0,0,4.78,4.78,11.46,11.46,0,0,0,1.3.54,10.45,10.45,0,0,0,6.75,0,11.46,11.46,0,0,0,1.3-.54,10.56,10.56,0,0,0,4.77-4.78,9.88,9.88,0,0,0,.54-1.3,10.45,10.45,0,0,0,0-6.75A9.88,9.88,0,0,0,74.87,57.79Z"/><path class="cls-2" d="M93.26,46.55A32.08,32.08,0,1,0,44,86.35h0l.37.32.21.19c5.89,5.39,6.49,14.43,6.49,14.43a3.38,3.38,0,0,0,3.37,3.38h22a3.39,3.39,0,0,0,3.38-3.38s.61-9.31,6.75-14.67l.17-.15.15-.12h0A32.06,32.06,0,0,0,93.26,46.55Zm-10,19.29a18.29,18.29,0,0,1-2.83,6.85L83,75.3a1.69,1.69,0,0,1,0,2.39l-2.39,2.39a1.68,1.68,0,0,1-2.38,0l-2.62-2.62a17.86,17.86,0,0,1-6.84,2.83V84a1.69,1.69,0,0,1-1.69,1.69H63.73A1.68,1.68,0,0,1,62.05,84v-3.7a18,18,0,0,1-6.85-2.83l-2.61,2.62a1.69,1.69,0,0,1-2.39,0l-2.39-2.39a1.69,1.69,0,0,1,0-2.39l2.62-2.61a18,18,0,0,1-2.83-6.85H43.9a1.68,1.68,0,0,1-1.69-1.68V60.78a1.69,1.69,0,0,1,1.69-1.69h3.7a17.86,17.86,0,0,1,2.83-6.84l-2.62-2.62a1.68,1.68,0,0,1,0-2.38l2.39-2.39a1.69,1.69,0,0,1,2.39,0l2.61,2.61a18.13,18.13,0,0,1,6.85-2.83v-3.7a1.69,1.69,0,0,1,1.68-1.69h3.38a1.69,1.69,0,0,1,1.69,1.69v3.7a18,18,0,0,1,6.84,2.83l2.62-2.61a1.68,1.68,0,0,1,2.38,0L83,47.25a1.68,1.68,0,0,1,0,2.38l-2.61,2.62a18.18,18.18,0,0,1,2.83,6.84H87a1.69,1.69,0,0,1,1.69,1.69v3.38A1.69,1.69,0,0,1,87,65.84Z"/></g></g></svg>