<svg xmlns="http://www.w3.org/2000/svg" viewBox="0 0 130 130"><defs><style>.cls-1{fill:none;}.cls-2{fill:#19a9e2;}</style></defs><g id="Layer_2" data-name="Layer 2"><g id="Layer_1-2" data-name="Layer 1"><rect class="cls-1" width="130" height="130"/><rect class="cls-2" x="4.43" y="91.8" width="21.83" height="38.2" rx="2.18"/><rect class="cls-2" x="38.26" y="80.89" width="21.83" height="49.11" rx="2.18"/><rect class="cls-2" x="71" y="64.52" width="21.83" height="65.48" rx="2.18"/><rect class="cls-2" x="103.74" y="48.15" width="21.83" height="81.85" rx="2.18"/><path class="cls-2" d="M8.25,60.23v2a2.19,2.19,0,0,0,2.33,2.18c12-.83,67.31-6.46,100.26-41.35L118,30.23a2.18,2.18,0,0,0,3.72-1.54V2.18A2.19,2.19,0,0,0,119.57,0H94.31a2.19,2.19,0,0,0-1.54,3.73L100,11S69,50.56,10.17,58.08A2.17,2.17,0,0,0,8.25,60.23Z"/></g></g></svg>