<svg xmlns="http://www.w3.org/2000/svg" viewBox="0 0 130 130"><defs><style>.cls-1{fill:none;}.cls-2{fill:#19a9e2;}</style></defs><g id="Layer_2" data-name="Layer 2"><g id="Layer_1-2" data-name="Layer 1"><rect class="cls-1" width="130" height="130"/><path class="cls-2" d="M75.08,11.82a1.47,1.47,0,0,0,0-2.07L68.35,3,65.76.43a1.47,1.47,0,0,0-2.07,0L61.1,3,54.37,9.75a1.47,1.47,0,0,0,0,2.07l1.55,1.56a1.48,1.48,0,0,0,2.08,0l4.16-4.17V21a1.46,1.46,0,0,0,1.47,1.46h2.19A1.46,1.46,0,0,0,67.29,21V9.21l4.16,4.17a1.48,1.48,0,0,0,2.08,0Z"/><path class="cls-2" d="M11.82,54.92a1.47,1.47,0,0,0-2.07,0L3,61.65.43,64.24a1.47,1.47,0,0,0,0,2.07L3,68.9l6.73,6.73a1.47,1.47,0,0,0,2.07,0l1.56-1.55a1.48,1.48,0,0,0,0-2.08L9.21,67.84H21a1.46,1.46,0,0,0,1.46-1.47V64.18A1.46,1.46,0,0,0,21,62.71H9.21l4.17-4.16a1.48,1.48,0,0,0,0-2.08Z"/><path class="cls-2" d="M54.92,118.18a1.47,1.47,0,0,0,0,2.07L61.65,127l2.59,2.59a1.47,1.47,0,0,0,2.07,0L68.9,127l6.73-6.73a1.47,1.47,0,0,0,0-2.07l-1.55-1.56a1.48,1.48,0,0,0-2.08,0l-4.16,4.17V109a1.46,1.46,0,0,0-1.47-1.46H64.18A1.46,1.46,0,0,0,62.71,109v11.82l-4.16-4.17a1.48,1.48,0,0,0-2.08,0Z"/><path class="cls-2" d="M118.18,75.08a1.47,1.47,0,0,0,2.07,0L127,68.35l2.59-2.59a1.47,1.47,0,0,0,0-2.07L127,61.1l-6.73-6.73a1.47,1.47,0,0,0-2.07,0l-1.56,1.55a1.48,1.48,0,0,0,0,2.08l4.17,4.16H109a1.46,1.46,0,0,0-1.46,1.47v2.19A1.46,1.46,0,0,0,109,67.29h11.82l-4.17,4.16a1.48,1.48,0,0,0,0,2.08Z"/><path class="cls-2" d="M47.77,85.7h-13A36.58,36.58,0,0,0,65,101.64C57.84,101.64,51.53,95.33,47.77,85.7Z"/><path class="cls-2" d="M44.17,67.57H28.46a36.35,36.35,0,0,0,3.37,13H46.09A59.33,59.33,0,0,1,44.17,67.57Z"/><path class="cls-2" d="M65,101.64A36.58,36.58,0,0,0,95.23,85.7h-13C78.47,95.33,72.16,101.64,65,101.64Z"/><path class="cls-2" d="M45.81,50.53H31.33a36.36,36.36,0,0,0-2.87,11.9H44.17A60,60,0,0,1,45.81,50.53Z"/><path class="cls-2" d="M65,28.36a36.61,36.61,0,0,0-30.95,17H47.36C51.06,35.16,57.58,28.36,65,28.36Z"/><path class="cls-2" d="M82.64,45.4H96A36.61,36.61,0,0,0,65,28.36C72.42,28.36,78.94,35.16,82.64,45.4Z"/><path class="cls-2" d="M84.19,50.53a60,60,0,0,1,1.64,11.9h15.71a36.36,36.36,0,0,0-2.87-11.9Z"/><path class="cls-2" d="M83.91,80.57H98.17a36.35,36.35,0,0,0,3.37-13H85.83A59.33,59.33,0,0,1,83.91,80.57Z"/><path class="cls-2" d="M65,33.49c-4.38,0-9,4.46-12.15,11.91h24.3C74,38,69.38,33.49,65,33.49Z"/><path class="cls-2" d="M65,96.51c4.16,0,8.58-4,11.67-10.81H53.33C56.42,92.49,60.84,96.51,65,96.51Z"/><path class="cls-2" d="M51.41,80.57H78.59a52.83,52.83,0,0,0,2.11-13H49.3A52.83,52.83,0,0,0,51.41,80.57Z"/><path class="cls-2" d="M49.3,62.43H80.7a53.68,53.68,0,0,0-1.8-11.9H51.1A53.68,53.68,0,0,0,49.3,62.43Z"/></g></g></svg>